<svg viewBox="0 0 1024 1024" version="1.1" xmlns="http://www.w3.org/2000/svg"><path fill="currentColor" d="M53.761057 382.948925h29.01319V152.925963c0-19.11687 16.846741-34.790647 37.999917-34.790647h285.876853c12.190859 0 22.780936 4.474735 29.814865 12.920589l132.349634 130.793819h334.691677c21.153176 0 38.525374 15.192002 38.525375 34.816341v86.28286h28.738256c20.876958 0 37.975507 16.133713 37.975507 34.816342v5.944473L947.165087 871.038064c-1.327132 10.442333-7.861299 19.399511-17.072855 24.8545a39.938584 39.938584 0 0 1-26.585039 9.960557H120.774164a40.862309 40.862309 0 0 1-26.585039-9.707464c-9.237251-5.944473-16.27118-15.651937-17.343934-26.594032L15.510616 422.4674c-2.153217-19.368678 12.517181-36.787127 33.394139-39.036699l4.856302-0.481776z m105.239137 0h706.531492v-51.475511H552.545621c-10.564383 0-20.602024-3.488058-28.187104-10.920255L390.379838 187.762861h-231.380928v195.186064z m768.388954 70.362414H96.892209l52.069059 378.190264h726.884278l51.543602-378.185125z" /></svg>