<svg viewBox="0 0 1024 1024" xmlns="http://www.w3.org/2000/svg"><path fill="currentColor" d="M367.921 223.807c12.666 0 24.688 5.047 33.851 14.21 9.164 9.164 14.21 21.186 14.21 33.851l0 16.009c0 35.346 28.654 64 64 64l336.185 0c12.665 0 24.688 5.047 33.852 14.21 9.163 9.164 14.21 21.186 14.21 33.851l0 352.193c0 12.666-5.047 24.688-14.21 33.852-9.164 9.163-21.186 14.21-33.852 14.21L207.833 800.193c-12.666 0-24.688-5.047-33.851-14.21-9.164-9.164-14.21-21.187-14.21-33.852L159.772 271.868c0-12.666 5.047-24.688 14.21-33.851s21.186-14.21 33.851-14.21L367.921 223.807M367.921 159.807 207.833 159.807c-61.534 0-112.062 50.528-112.062 112.062l0 480.264c0 61.534 50.528 112.062 112.062 112.062l608.334 0c61.534 0 112.062-50.527 112.062-112.062L928.229 399.938c0-61.534-50.527-112.062-112.062-112.062L479.982 287.876l0-16.009C479.982 210.334 429.455 159.807 367.921 159.807L367.921 159.807z" /></svg>